<svg xmlns="http://www.w3.org/2000/svg" viewBox="0 0 24 24">
  <path fill="#fff" d="M12 0C5.37 0 0 5.5 0 12.28c0 5.43 3.44 10.03 8.2 11.66.6.11.82-.27.82-.59 0-.29-.01-1.06-.02-2.08-3.34.74-4.04-1.65-4.04-1.65-.55-1.42-1.33-1.8-1.33-1.8-1.09-.76.08-.75.08-.75 1.2.09 1.84 1.27 1.84 1.27 1.07 1.87 2.81 1.33 3.5 1.02.11-.79.42-1.33.76-1.64-2.66-.31-5.47-1.36-5.47-6.08 0-1.34.47-2.44 1.24-3.3-.12-.31-.54-1.56.12-3.25 0 0 1.01-.33 3.3 1.26A11.3 11.3 0 0 1 12 5.95c1.02 0 2.04.14 3 .4 2.29-1.59 3.3-1.26 3.3-1.26.66 1.69.24 2.94.12 3.25.77.86 1.24 1.96 1.24 3.3 0 4.73-2.81 5.76-5.49 6.07.43.38.82 1.14.82 2.29 0 1.65-.02 2.99-.02 3.4 0 .32.22.7.83.58A12.25 12.25 0 0 0 24 12.28C24 5.5 18.63 0 12 0Z"/>
</svg>
